<?xml version="1.0" encoding="UTF-8"?><svg id="Layer_1" xmlns="http://www.w3.org/2000/svg" xmlns:xlink="http://www.w3.org/1999/xlink" viewBox="0 0 24 24"><defs><style>.cls-1{fill:url(#linear-gradient);}.cls-1,.cls-2{stroke-width:0px;}.cls-2{fill:url(#linear-gradient-2);}</style><linearGradient id="linear-gradient" x1="1.21" y1="14.01" x2="13.82" y2="14.01" gradientUnits="userSpaceOnUse"><stop offset="0" stop-color="#d8d8d8"/><stop offset="1" stop-color="#4b4b4b"/></linearGradient><linearGradient id="linear-gradient-2" x1="12.45" y1="11.31" x2="22.79" y2="11.31" xlink:href="#linear-gradient"/></defs><path class="cls-1" d="m13.82,15.2c-.14.2-.27.38-.4.56-.01.02-.06.02-.09.02-.02,0-.04,0-.06-.02-.29-.27-.66-.21-1.01-.25-.7-.08-1.34.15-1.97.4-.8.32-1.55.72-2.24,1.24-.25.19-.56.31-.86.44-.55.23-1.01.59-1.49.92-.42.3-.79.68-1.27.91-.42.21-.84.42-1.28.6-.31.13-.62.07-.92-.07-.33-.15-.59-.39-.81-.67-.3-.39-.25-.82-.14-1.26.16-.65.59-1.14,1.01-1.63.42-.49.91-.9,1.41-1.31.18-.15.31-.34.46-.52.26-.32.54-.61.93-.78.17-.07.35-.13.53-.16.39-.07.72-.25.99-.52.47-.49.93-.98,1.39-1.48.12-.13.19-.29.2-.47.02-.24.21-.37.36-.52.24-.24.5-.46.73-.71.13-.14.21-.31.22-.52-.11-.02-.22-.03-.32-.04-.26-.02-.49-.1-.68-.27-.24-.22-.46-.24-.75.08-.25.29-.35.66-.49,1.01-.14.35-.26.71-.45,1.02-.33.56-.87.75-1.5.69-.2-.02-.4-.06-.59-.12-.32-.1-.6-.47-.62-.78,0-.14.05-.26.15-.35.18-.17.37-.33.54-.52.22-.24.45-.47.74-.61.61-.28,1.13-.69,1.67-1.08.39-.28.82-.4,1.3-.37.24.01.48.02.71,0,.17,0,.35-.02.51-.08.53-.18,1.02-.14,1.48.19.25.18.52.35.76.54.33.26.43.57.16.98-.25.38-.45.79-.67,1.19-.29.54-.68,1-1.22,1.3-.56.31-.96.78-1.37,1.25-.4.47-.85.89-1.26,1.34-.3.33-.7.52-1.04.79-.32.25-.55.57-.71.94,0,.02,0,.04,0,.06.15-.12.28-.25.44-.34.19-.11.38-.21.59-.27.54-.14,1.02-.41,1.51-.66.6-.31,1.2-.61,1.8-.93.36-.19.72-.41,1.07-.61.29-.16.59-.31.93-.15.09.04.16.1.24.15.17.11.35.22.51.34.05.04.11.1.13.16.08.21.15.42.22.63.05.16.14.25.32.23.05,0,.1.02.18.03Z"/><path class="cls-2" d="m19.69,7.57c-.29.11-.59.2-.87.32-.82.33-1.64.67-2.46,1.01-.23.09-.47.12-.69,0-.44-.22-.79-.04-1.13.24-.17.14-.35.26-.53.37-.16.09-.32.07-.48-.03-.13-.08-.27-.14-.42-.18-.38-.11-.64-.4-.66-.78-.01-.25.16-.41.34-.55.51-.4,1.1-.47,1.68-.24.53.21.93.1,1.31-.31.3-.32.68-.51,1.12-.62.48-.12.95-.3,1.41-.47.67-.25,1.35-.43,2.05-.56.13-.03.26-.06.39-.09.27-.06.47-.2.63-.42.18-.24.42-.4.73-.38.27.01.54.29.63.62.08.3.1.61-.03.89-.34.72-.67,1.45-1.06,2.14-.21.36-.55.64-.81.98-.17.22-.3.47-.43.72-.05.09-.03.22-.03.33,0,.14.02.27.02.41,0,.19-.07.35-.21.48-.32.28-.64.56-.96.83-.39.33-.78.65-1.16.98-.31.27-.61.56-.91.83-.07.06-.07.12-.01.19.11.15.21.3.32.45.12.17.17.35.06.53-.16.28-.35.54-.52.82-.26.41-.53.82-.77,1.24-.19.33-.48.42-.82.39-.2-.02-.4-.07-.59-.12-.3-.09-.59-.16-.9-.13-.25.03-.46-.04-.63-.26-.12-.15-.29-.26-.44-.39-.04-.03-.08-.07-.14-.12.17-.07.32-.13.47-.19.7-.31,1.34-.7,1.81-1.32.32-.42.62-.86.93-1.28.12-.16.18-.34.17-.53-.01-.34.14-.59.39-.79.48-.4.96-.79,1.45-1.19.27-.22.54-.42.8-.65.11-.1.2-.24.27-.37.12-.21.08-.42-.1-.59-.09-.08-.18-.15-.26-.23-.18-.16-.19-.24-.04-.43.26-.33.53-.65.78-.98.12-.17.21-.36.32-.54,0-.01-.02-.03-.03-.04Z"/></svg>